<?xml version="1.0" standalone="no"?><!DOCTYPE svg PUBLIC "-//W3C//DTD SVG 1.1//EN" "http://www.w3.org/Graphics/SVG/1.1/DTD/svg11.dtd"><svg t="1683524445335" class="icon" viewBox="0 0 1024 1024" version="1.1" xmlns="http://www.w3.org/2000/svg" p-id="39148" xmlns:xlink="http://www.w3.org/1999/xlink" width="500" height="500"><path d="M640 755.2L567.466667 682.666667H328.533333L256 755.2v12.8h384v-12.8z m85.333333-38.4V853.333333H170.666667v-136.533333L290.133333 597.333333h311.466667l123.733333 119.466667zM661.333333 597.333333h72.533334l119.466666 119.466667V853.333333h-85.333333v-149.333333L661.333333 597.333333z m-128-46.933333c59.733333-17.066667 106.666667-76.8 106.666667-145.066667v-85.333333c0-68.266667-46.933333-123.733333-106.666667-145.066667 12.8-4.266667 29.866667-4.266667 42.666667-4.266666C657.066667 170.666667 725.333333 238.933333 725.333333 320v85.333333c0 81.066667-68.266667 149.333333-149.333333 149.333334-17.066667 0-29.866667-4.266667-42.666667-4.266667z m-85.333333-379.733333C529.066667 170.666667 597.333333 238.933333 597.333333 320v85.333333c0 81.066667-68.266667 149.333333-149.333333 149.333334S298.666667 486.4 298.666667 405.333333v-85.333333C298.666667 238.933333 366.933333 170.666667 448 170.666667z m0 85.333333C413.866667 256 384 285.866667 384 320v85.333333c0 34.133333 29.866667 64 64 64s64-29.866667 64-64v-85.333333c0-34.133333-29.866667-64-64-64z" p-id="39149"></path></svg>
